<svg width="290" height="218" viewBox="0 0 290 218" fill="none" xmlns="http://www.w3.org/2000/svg">
<g clip-path="url(#clip0_21_992)">
<path opacity="0.18" d="M254.806 144.913C251.057 130.215 240.715 117.768 237.435 102.956C234.458 89.4888 237.606 75.5087 237.52 61.7223C237.4 42.516 230.092 22.5004 214.584 11.0849C199.47 -0.0569883 179.156 -1.45329 160.522 1.06005C141.889 3.5734 123.815 9.49487 105.095 11.4269C96.5699 12.3103 87.8387 12.3787 79.7132 15.1086C66.0278 19.7135 55.9024 31.2373 47.714 43.0973C41.897 51.5094 36.6057 60.5426 34.4743 70.5333C30.0287 91.4151 39.9142 112.707 39.6171 134.022C39.4799 144.099 37.0686 154.203 38.56 164.165C41.1427 181.451 55.0852 195.095 70.4848 203.444C91.9357 215.082 117.004 218.832 141.409 217.835C182.07 216.148 270.622 206.989 254.806 144.913Z" fill="#7EBAFF"/>
<path d="M81.7989 188.051C81.6727 187.969 81.5638 187.864 81.4785 187.74C81.3933 187.617 81.3332 187.478 81.3019 187.331C81.2706 187.184 81.2686 187.033 81.296 186.886C81.3235 186.738 81.3798 186.598 81.4618 186.472L126.603 116.782L128.523 118.025L83.3817 187.714C83.3001 187.84 83.1943 187.949 83.0705 188.034C82.9467 188.119 82.8073 188.179 82.6603 188.21C82.5132 188.241 82.3615 188.243 82.2137 188.216C82.0659 188.189 81.9249 188.132 81.7989 188.051Z" fill="#2B7AFB"/>
<path opacity="0.18" d="M132.518 191.014C107.907 191.322 85.7874 189.84 61.3423 191.693C68.9649 194.633 80.5018 199.05 89.3416 199.671C128.655 202.521 168.294 203.473 207.83 202.555C210.516 202.493 213.327 202.401 215.641 201.524C217.955 200.646 219.538 198.708 218.412 197.135C215.207 192.673 191.105 192.183 184.413 192.251C168.757 192.422 148.151 190.821 132.518 191.014Z" fill="#7EBAFF"/>
<path d="M123.917 184.124C123.677 184.985 123.472 185.942 123.917 186.729C124.449 187.663 125.769 187.982 126.86 187.72C127.952 187.458 129.112 186.962 129.649 186.01C131.906 182.021 137.471 172.133 140.626 165.237C141.511 163.299 143.511 162.387 141.974 160.86C138.18 157.081 131.912 163.054 130.734 166.314C128.574 172.304 125.603 177.94 123.917 184.124Z" fill="url(#paint0_linear_21_992)"/>
<path d="M183.511 191.111C184.505 191.806 185.179 188.433 186.293 187.937C188.213 187.082 184.95 165.71 183.693 163.367C181.231 158.808 173.871 157.668 174.179 164.747C174.271 167.499 182.488 190.41 183.511 191.111Z" fill="url(#paint1_linear_21_992)"/>
<path d="M159.511 92.3384C156.768 93.4156 154.631 95.6269 152.848 97.9635C143.506 110.211 141.734 126.984 132.232 139.112C129.792 142.229 126.821 145.079 125.461 148.8C122.912 155.765 127.889 164.428 135.209 165.75C137.7 166.206 140.392 165.932 142.637 167.061C144.883 168.189 146.26 170.412 148.169 172.002C153.711 176.63 162.534 174.732 167.968 169.973C170.054 168.143 171.968 165.875 174.625 165.089C178.054 164.074 181.831 165.835 185.339 165.043C189.299 164.154 191.933 160.119 192.362 156.095C192.79 152.072 191.459 148.082 189.916 144.344C185.402 133.401 178.848 122.989 177.522 111.231C176.951 106.102 178.094 97.6957 174.516 93.3871C171.619 89.8308 163.3 90.8566 159.511 92.3384Z" fill="#2B7AFB"/>
<path d="M175.762 102.614C175.373 104.267 174.459 106.034 172.796 106.444C171.288 106.803 169.648 105.874 168.196 106.41C166.145 107.168 166.002 110.16 164.259 111.482C163.311 112.2 162.054 112.303 160.911 112.622C158.02 113.443 155.802 115.699 153.722 117.865C152.917 115.015 154.917 112.251 156.042 109.521C157.369 106.274 157.504 102.663 156.425 99.3256C156.111 98.5351 155.881 97.7136 155.74 96.8749C155.675 96.453 155.714 96.0216 155.855 95.6184C155.995 95.2151 156.232 94.8522 156.545 94.5611C156.979 94.2624 157.475 94.0674 157.997 93.9911C160.444 93.4887 162.964 93.452 165.425 93.8829C167.06 94.2746 168.713 94.5827 170.379 94.8061C172.402 94.9657 173.602 94.145 175.333 93.5067C176.271 96.4531 176.419 99.593 175.762 102.614Z" fill="url(#paint2_linear_21_992)"/>
<path d="M120.981 184.859C120.418 185.65 119.927 186.49 119.512 187.367C119.218 187.886 119.089 188.482 119.141 189.077C119.344 189.783 119.786 190.397 120.392 190.815C122.014 192.145 123.757 193.323 125.598 194.331C127.986 195.682 130.563 196.896 133.346 197.112C134.756 197.3 136.188 196.994 137.397 196.246C138.54 195.443 139.111 193.887 138.471 192.701C137.832 191.516 136.152 191.1 134.854 190.422C131.272 188.626 125.226 178.852 120.981 184.859Z" fill="#3E3E54"/>
<path d="M182.888 188.7C182.492 188.913 182.158 189.223 181.916 189.601C181.718 190.017 181.626 190.475 181.648 190.935C181.644 192.286 181.93 193.623 182.488 194.856C182.644 195.267 182.911 195.628 183.259 195.899C183.592 196.09 183.962 196.207 184.345 196.24C187.722 196.753 191.167 196.497 194.573 196.24C195.967 196.132 197.516 195.95 198.396 194.873C198.773 194.339 198.975 193.702 198.975 193.049C198.975 192.396 198.773 191.759 198.396 191.225C197.616 190.166 196.462 189.441 195.167 189.196C193.973 188.928 192.636 189.242 191.493 188.934C190.596 188.695 189.807 187.994 188.842 187.766C186.811 187.291 184.674 187.627 182.888 188.7Z" fill="#3E3E54"/>
<path d="M134.146 91.3638C133.546 94.2989 133.352 97.3252 132.466 100.186C131.518 103.252 129.775 106.148 129.695 109.35C129.628 109.887 129.769 110.43 130.089 110.866C131.518 112.439 135.672 109.333 136.455 108.114C137.346 106.74 137.712 105.105 138.06 103.503L140.529 92.2529C140.94 90.3665 141.386 88.3318 142.586 86.7646C143.729 85.3113 154.78 72.7217 154.191 70.6814C153.22 67.2619 138.992 79.5209 137.438 81.6182C135.643 84.0289 134.729 88.5142 134.146 91.3638Z" fill="url(#paint3_linear_21_992)"/>
<path d="M154.78 62.9932C153.694 67.3417 154.208 71.9068 154.545 76.3807C154.945 81.3921 155.159 86.4112 155.185 91.4379C155.185 94.2875 155.248 97.4278 157.122 99.5878C159.694 102.551 164.379 102.232 168.168 101.172C169.549 100.863 170.855 100.282 172.008 99.4624C174.499 97.4848 175.025 93.9798 175.299 90.811C176.059 81.8633 176.237 72.8758 175.831 63.9051C175.568 58.1717 173.436 50.2897 166.031 50.8311C160.82 51.1959 155.911 58.5023 154.78 62.9932Z" fill="#7EBAFF"/>
<path d="M175.293 90.7939C175.025 93.957 174.505 97.4677 172.008 99.4453C170.853 100.266 169.546 100.847 168.162 101.155C164.379 102.215 159.694 102.534 157.122 99.565C155.248 97.4107 155.197 94.2761 155.185 91.4208C155.185 88.3604 155.088 85.3056 154.928 82.2451C154.833 80.277 154.707 78.3165 154.551 76.3636C154.191 71.8954 153.694 67.3246 154.785 62.9818C155.608 59.6763 158.482 54.8605 162.008 52.387C163.171 51.5036 164.554 50.9538 166.008 50.797C173.436 50.227 175.545 58.1375 175.808 63.8766C176.223 72.8507 176.051 81.8422 175.293 90.7939Z" fill="url(#paint4_linear_21_992)"/>
<path d="M166.202 54.6952C165.329 56.7677 164.227 58.7366 162.917 60.5654C162.268 61.3721 161.744 62.2711 161.362 63.2326C161.085 64.3834 161.021 65.5752 161.174 66.749C161.499 71.8783 160.871 77.6345 157.048 81.111C156.46 81.6785 155.727 82.073 154.928 82.2508C154.833 80.2827 154.707 78.3222 154.551 76.3693C154.191 71.9011 153.694 67.3303 154.785 62.9876C155.608 59.682 158.482 54.8662 162.008 52.3927C162.579 52.3358 163.151 52.3016 163.688 52.2959C166.122 52.2959 167.248 52.1477 166.202 54.6952Z" fill="url(#paint5_linear_21_992)"/>
<path d="M178.276 25.3899C178.733 28.5131 179.173 33.8874 179.499 37.022C179.653 38.5323 179.779 40.1508 179.053 41.4901C178.495 42.4351 177.657 43.1839 176.653 43.633C175.647 44.0741 174.603 44.4251 173.533 44.6817C172.625 44.9382 171.642 45.2516 171.128 46.0666C170.807 46.6756 170.647 47.3564 170.665 48.0442L170.482 51.0648C170.431 51.9311 169.562 52.7746 168.768 53.0994C167.94 53.3817 167.042 53.3817 166.214 53.0994C165.476 52.9032 164.806 52.509 164.277 51.9596C163.657 51.1614 163.291 50.1969 163.225 49.1898C162.978 46.8491 163.096 44.4845 163.574 42.1797C163.766 41.0491 164.038 39.9332 164.385 38.84C164.717 37.837 165.145 36.8624 165.574 35.8878C166.026 34.7758 166.587 33.7106 167.248 32.7077C168.095 31.599 169.065 30.5895 170.139 29.6985C171.186 28.6564 172.387 27.78 173.699 27.0997C175.185 26.4044 177.048 24.2615 178.276 25.3899Z" fill="url(#paint6_linear_21_992)"/>
<path d="M185.613 18.8187C181.894 22.546 177.499 25.5267 173.14 28.5074C171.111 29.8809 169.077 31.2601 166.94 32.4569C160.772 35.8724 153.905 37.841 146.86 38.2131C146.534 37.4494 147.597 36.7085 148.346 36.3438L155.363 32.9242C155.681 32.807 155.964 32.6108 156.186 32.3543C156.429 31.8993 156.484 31.3676 156.34 30.8725C155.871 27.983 155.06 24.8656 156.34 22.2382C157.374 20.1409 159.517 18.8643 161.568 17.7359C163.283 16.7841 165.225 15.8323 167.151 16.237C169.077 16.6416 170.431 18.2716 171.562 19.8617C171.808 20.2797 172.153 20.6303 172.568 20.8818C172.871 21.0114 173.198 21.0774 173.528 21.0756C178.002 21.2637 181.739 17.924 185.905 16.3054C186.182 16.1673 186.497 16.1213 186.802 16.1743C187.579 16.3966 187.436 17.6219 186.842 18.1747C186.248 18.7275 186.185 18.2431 185.613 18.8187Z" fill="#7EBAFF"/>
<path d="M186.859 18.1576C186.288 18.7275 186.191 18.2431 185.613 18.813C181.888 22.546 177.499 25.5267 173.134 28.5017C171.105 29.8752 169.082 31.2487 166.94 32.4512C160.77 35.8626 153.904 37.8327 146.86 38.2131C146.534 37.4437 147.597 36.6971 148.346 36.3381L155.363 32.9185C155.679 32.7963 155.961 32.6009 156.186 32.3486C156.432 31.8924 156.487 31.3579 156.34 30.8611C155.871 27.9716 155.06 24.8542 156.34 22.2268C157.369 20.1295 159.511 18.8529 161.568 17.7245C163.283 16.7727 165.214 15.8209 167.145 16.2313C169.077 16.6416 170.431 18.2602 171.557 19.8503C171.803 20.2671 172.149 20.6174 172.562 20.8704C172.691 20.9285 172.825 20.9725 172.962 21.0015C173.15 21.0402 173.342 21.0612 173.534 21.0642C177.568 21.2352 181.014 18.5224 184.716 16.8069C185.111 16.6188 185.511 16.4536 185.911 16.294C186.184 16.156 186.495 16.11 186.796 16.1629C187.602 16.3909 187.453 17.5991 186.859 18.1576Z" fill="url(#paint7_linear_21_992)"/>
<path d="M175.276 30.6389C172.233 32.7293 170.139 35.932 169.448 39.5524C169.105 41.3933 169.145 43.2854 168.819 45.1262C168.446 47.167 167.641 49.1051 166.459 50.8119C165.277 52.5187 163.744 53.9551 161.963 55.0257C160.58 55.8407 159.02 56.4562 157.963 57.6645C156.906 58.8727 156.448 60.6964 156.117 62.372C155.077 67.6381 154.128 73.2005 150.814 77.4236C148.468 80.4417 145.074 82.4747 141.3 83.1228C139.427 83.4235 137.511 83.339 135.672 82.8744C133.832 82.4098 132.108 81.5751 130.603 80.4214C128.124 78.3858 126.34 75.6312 125.501 72.5394C124.244 68.1624 124.929 62.8507 128.581 60.0524C130.285 58.8524 132.287 58.1409 134.369 57.995C135.615 57.8696 137.055 57.7841 137.797 56.7754C138.107 56.2524 138.302 55.6695 138.369 55.0656C138.732 53.2703 139.246 51.5087 139.906 49.7996C140.403 48.5058 141.049 47.1779 142.192 46.3801C143.334 45.5822 144.912 45.5195 146.311 45.1604C148.618 44.5569 150.613 43.1105 151.9 41.1083C153.403 38.7374 155.466 38.2986 157.751 36.6686C158.505 36.1126 159.304 35.6207 160.14 35.1982C161.14 34.7377 162.176 34.3566 163.237 34.0584C167.437 32.7476 171.934 29.6643 175.516 27.1168C175.511 27.7893 175.294 29.9664 175.276 30.6389Z" fill="#3E3E54"/>
<path d="M175.276 30.6389C172.233 32.7293 170.139 35.932 169.448 39.5524C169.105 41.3933 169.145 43.2854 168.819 45.1262C168.446 47.167 167.641 49.1051 166.459 50.8119C165.277 52.5187 163.744 53.9551 161.963 55.0257C160.58 55.8407 159.02 56.4562 157.963 57.6645C156.906 58.8727 156.448 60.6964 156.117 62.372C155.077 67.6381 154.128 73.2005 150.814 77.4236C148.468 80.4417 145.074 82.4747 141.3 83.1228C139.427 83.4235 137.511 83.339 135.672 82.8744C133.832 82.4098 132.108 81.5751 130.603 80.4214C128.124 78.3858 126.34 75.6312 125.501 72.5394C124.244 68.1624 124.929 62.8507 128.581 60.0524C130.285 58.8524 132.287 58.1409 134.369 57.995C135.615 57.8696 137.055 57.7841 137.797 56.7754C138.107 56.2524 138.302 55.6695 138.369 55.0656C138.732 53.2703 139.246 51.5087 139.906 49.7996C140.403 48.5058 141.049 47.1779 142.192 46.3801C143.334 45.5822 144.912 45.5195 146.311 45.1604C148.618 44.5569 150.613 43.1105 151.9 41.1083C153.403 38.7374 155.466 38.2986 157.751 36.6686C158.505 36.1126 159.304 35.6207 160.14 35.1982C161.14 34.7377 162.176 34.3566 163.237 34.0584C167.437 32.7476 171.934 29.6643 175.516 27.1168C175.511 27.7893 175.294 29.9664 175.276 30.6389Z" fill="url(#paint8_linear_21_992)"/>
<path d="M167.351 53.4756C166.208 54.9973 166.054 57.049 166.437 58.9012C166.913 60.7304 167.639 62.4852 168.597 64.116L179.276 84.3424C182.614 90.6514 186.071 97.1257 191.476 101.793C193.224 103.296 195.142 104.591 197.19 105.652C197.59 105.844 197.973 106.071 198.333 106.33C199.23 107.031 199.687 108.131 200.31 109.083C201.339 110.588 202.81 111.738 204.521 112.375C206.232 113.011 208.099 113.104 209.864 112.639C210.276 111.157 209.264 109.664 208.15 108.61C207.036 107.555 205.693 106.604 205.156 105.162C205.184 105.278 205.236 105.388 205.307 105.485C205.378 105.582 205.467 105.664 205.57 105.727C205.673 105.789 205.788 105.831 205.907 105.849C206.026 105.868 206.147 105.863 206.264 105.834C206.381 105.806 206.492 105.755 206.589 105.684C206.686 105.613 206.768 105.523 206.831 105.421C206.894 105.318 206.935 105.204 206.954 105.085C206.972 104.966 206.967 104.845 206.939 104.728C206.823 104.423 206.625 104.155 206.367 103.953C205.621 103.165 204.78 102.47 203.864 101.885C202.887 101.315 201.784 101.007 200.813 100.443C199.669 99.717 198.66 98.7992 197.83 97.7299C195.623 95.1165 193.697 92.2799 192.082 89.2665C190.653 86.6164 189.465 83.8238 187.819 81.2877C186.351 79.008 184.516 76.9905 183.316 74.574C181.168 70.2711 181.225 65.2216 179.751 60.6452C178.882 57.9381 177.145 53.9087 174.677 52.256C172.454 50.7913 168.922 51.3441 167.351 53.4756Z" fill="url(#paint9_linear_21_992)"/>
<path d="M180.322 31.6476C180.458 31.6422 180.592 31.6802 180.705 31.7559C180.79 31.8454 180.846 31.9587 180.865 32.0808C181.043 32.786 181.103 33.516 181.042 34.2408C180.99 34.9019 180.659 35.7055 179.996 35.6998C179.724 35.6791 179.467 35.5689 179.265 35.3863C178.465 34.748 178.122 33.574 177.682 32.6507C177.682 32.6222 172.625 33.4486 172.202 33.5227C171.231 33.6823 170.768 33.8931 171.465 33.2491C173.482 31.3684 177.699 31.4995 180.322 31.6476Z" fill="#3E3E54"/>
<path d="M130.837 109.613L125.518 117.221L128.375 119.279L133.689 112.28C133.289 111.271 131.563 109.596 130.837 109.613Z" fill="#7EBAFF"/>
<path d="M130.837 109.613L125.518 117.221L128.375 119.279L133.689 112.28C133.289 111.271 131.563 109.596 130.837 109.613Z" fill="#3E3E54"/>
<path d="M110.278 141.773L102.152 137.459C100.018 136.32 97.5287 136.037 95.1923 136.667C92.8558 137.297 90.8488 138.793 89.5812 140.85L70.7931 171.227C69.9666 172.566 69.7023 174.177 70.0573 175.71C70.4124 177.242 71.3582 178.574 72.6902 179.416L82.21 185.361L110.278 141.773Z" fill="#3E3E54"/>
<path d="M80.3131 191.14C82.0709 191.14 83.4959 189.718 83.4959 187.965C83.4959 186.212 82.0709 184.791 80.3131 184.791C78.5553 184.791 77.1304 186.212 77.1304 187.965C77.1304 189.718 78.5553 191.14 80.3131 191.14Z" fill="#3E3E54"/>
<path d="M80.3073 189.242C81.1089 189.242 81.7587 188.594 81.7587 187.794C81.7587 186.995 81.1089 186.347 80.3073 186.347C79.5058 186.347 78.856 186.995 78.856 187.794C78.856 188.594 79.5058 189.242 80.3073 189.242Z" fill="#7EBAFF"/>
<path d="M133.586 112.16C135.104 112.16 136.334 110.933 136.334 109.419C136.334 107.905 135.104 106.678 133.586 106.678C132.068 106.678 130.837 107.905 130.837 109.419C130.837 110.933 132.068 112.16 133.586 112.16Z" fill="#2B7AFB"/>
<path d="M184.733 16.8012C184.663 17.0896 184.528 17.3585 184.339 17.5877C183.051 19.1145 181.592 20.4894 179.99 21.6854C177.179 23.9651 174.356 26.2448 171.419 28.3535C166.762 31.6818 161.419 34.6625 155.694 34.4231C156.319 33.6127 157.005 32.8506 157.745 32.1434C158.238 31.6405 158.802 31.2123 159.419 30.8725C160.057 30.5902 160.716 30.3596 161.391 30.1829C164.505 29.2141 167.225 27.2763 169.756 25.2132C170.551 25.2132 172.093 22.9335 172.402 22.2952C172.711 21.6569 172.802 21.2808 172.973 20.973C173.161 21.0117 173.353 21.0327 173.545 21.0357C177.585 21.2295 181.03 18.5167 184.733 16.8012Z" fill="url(#paint10_linear_21_992)"/>
<path d="M150.985 124.106C152.54 120.686 154.294 117.324 155.345 113.71C156.397 110.097 156.705 106.142 155.345 102.631C150.557 109.271 148.751 117.517 146.374 125.342C143.997 133.167 140.597 141.255 133.86 145.922C131.232 147.74 127.975 149.199 126.809 152.191C125.643 155.183 127.117 158.58 129.506 160.649C131.894 162.718 135.02 163.687 138.077 164.513C141.134 165.339 144.277 166.109 146.894 167.876C149.117 169.38 150.934 171.586 153.488 172.435C157.654 173.803 161.968 171.067 165.448 168.389C167.533 166.781 169.825 164.587 169.345 162.005C167.485 163.055 165.324 163.449 163.213 163.123C161.101 162.798 159.16 161.771 157.705 160.21C154.848 156.956 154.631 152.231 154.38 147.888C154.064 142.428 153.427 136.991 152.471 131.606C149.511 135.721 149.18 141.089 148.951 146.15L148.563 154.881C148.465 156.99 148.985 161.042 147.42 162.706C144.288 166.075 142.214 159.538 142.18 157.15C142.066 146.23 146.54 133.857 150.985 124.106Z" fill="#2363CB"/>
<path d="M162.991 133.612C164.242 140.024 166.716 146.184 167.562 152.664C167.939 155.571 168.282 159.008 170.831 160.467C171.615 160.862 172.455 161.136 173.322 161.282C177.099 162.097 181.225 162.872 184.682 161.145C188.733 159.116 190.527 153.542 188.407 149.541L186.647 154.135C186.436 154.676 186.167 155.275 185.613 155.463C184.676 155.776 183.927 154.67 183.556 153.753L179.556 143.899C177.756 146.874 180.042 150.59 180.173 154.066C180.233 154.658 180.111 155.254 179.825 155.776C179.173 156.808 177.608 156.916 176.55 156.289C175.493 155.662 174.836 154.579 174.265 153.508C167.557 141.163 164.841 127.051 166.488 113.106C166.699 111.396 166.973 109.624 166.705 107.903C166.454 106.313 165.562 104.375 163.979 103.794C163.756 105.931 164.162 108.097 163.831 110.245C163.465 112.565 162.808 114.805 162.505 117.158C161.786 122.634 161.95 128.188 162.991 133.612Z" fill="url(#paint11_linear_21_992)"/>
</g>
<defs>
<linearGradient id="paint0_linear_21_992" x1="123.655" y1="173.729" x2="142.534" y2="173.729" gradientUnits="userSpaceOnUse">
<stop stop-color="#E5C5D5"/>
<stop offset="0.42" stop-color="#EAD4D1"/>
<stop offset="1" stop-color="#F0E9CB"/>
</linearGradient>
<linearGradient id="paint1_linear_21_992" x1="4059.75" y1="9899.32" x2="4342.65" y2="9899.32" gradientUnits="userSpaceOnUse">
<stop stop-color="#E5C5D5"/>
<stop offset="0.42" stop-color="#EAD4D1"/>
<stop offset="1" stop-color="#F0E9CB"/>
</linearGradient>
<linearGradient id="paint2_linear_21_992" x1="152.26" y1="94.4357" x2="214.006" y2="151.429" gradientUnits="userSpaceOnUse">
<stop stop-opacity="0"/>
<stop offset="0.99"/>
</linearGradient>
<linearGradient id="paint3_linear_21_992" x1="5719.09" y1="6680.72" x2="6772.15" y2="6680.72" gradientUnits="userSpaceOnUse">
<stop stop-color="#E5C5D5"/>
<stop offset="0.42" stop-color="#EAD4D1"/>
<stop offset="1" stop-color="#F0E9CB"/>
</linearGradient>
<linearGradient id="paint4_linear_21_992" x1="160.174" y1="76.3579" x2="182.099" y2="76.3579" gradientUnits="userSpaceOnUse">
<stop offset="0.02" stop-color="white" stop-opacity="0"/>
<stop offset="0.58" stop-color="white" stop-opacity="0.39"/>
<stop offset="0.68" stop-color="white" stop-opacity="0.68"/>
<stop offset="1" stop-color="white"/>
</linearGradient>
<linearGradient id="paint5_linear_21_992" x1="3903.7" y1="4830.37" x2="1720.51" y2="2876.49" gradientUnits="userSpaceOnUse">
<stop stop-opacity="0"/>
<stop offset="0.99"/>
</linearGradient>
<linearGradient id="paint6_linear_21_992" x1="4890.43" y1="2002.39" x2="5369.45" y2="2002.39" gradientUnits="userSpaceOnUse">
<stop stop-color="#E5C5D5"/>
<stop offset="0.42" stop-color="#EAD4D1"/>
<stop offset="1" stop-color="#F0E9CB"/>
</linearGradient>
<linearGradient id="paint7_linear_21_992" x1="12595.1" y1="1518.44" x2="12009.9" y2="48.0478" gradientUnits="userSpaceOnUse">
<stop offset="0.02" stop-color="white" stop-opacity="0"/>
<stop offset="0.58" stop-color="white" stop-opacity="0.39"/>
<stop offset="0.68" stop-color="white" stop-opacity="0.68"/>
<stop offset="1" stop-color="white"/>
</linearGradient>
<linearGradient id="paint8_linear_21_992" x1="10298.1" y1="5539.17" x2="14780.3" y2="5539.17" gradientUnits="userSpaceOnUse">
<stop stop-opacity="0"/>
<stop offset="0.99"/>
</linearGradient>
<linearGradient id="paint9_linear_21_992" x1="12920.5" y1="8995.83" x2="16263.8" y2="8995.83" gradientUnits="userSpaceOnUse">
<stop stop-color="#E5C5D5"/>
<stop offset="0.42" stop-color="#EAD4D1"/>
<stop offset="1" stop-color="#F0E9CB"/>
</linearGradient>
<linearGradient id="paint10_linear_21_992" x1="8626.44" y1="576.373" x2="8869.77" y2="1400.79" gradientUnits="userSpaceOnUse">
<stop stop-opacity="0"/>
<stop offset="0.99"/>
</linearGradient>
<linearGradient id="paint11_linear_21_992" x1="8032.51" y1="11739.2" x2="16780.2" y2="23709.1" gradientUnits="userSpaceOnUse">
<stop stop-opacity="0"/>
<stop offset="0.99"/>
</linearGradient>
<clipPath id="clip0_21_992">
<rect width="290" height="218" fill="white"/>
</clipPath>
</defs>
</svg>
